{"title":"Anne-Sophie Mutter -Beethoven.Violin.Sonatas.nr.1-10[BBC.1999]","uid":6673967,"size":2833726126,"categoryP":"video","categoryS":"tv_shows","magnet":"?xt=urn:btih:7e741d1072a7069ae99760fd213af0402851d57d&amp;dn=Anne-Sophie+Mutter+-Beethoven.Violin.Sonatas.nr.1-10%5BBBC.1999%5D&amp;tr=udp%3A%2F%2Ftracker.openbittorrent.com%3A80&amp;tr=udp%3A%2F%2Fopen.demonii.com%3A1337&amp;tr=udp%3A%2F%2Ftracker.coppersurfer.tk%3A6969&amp;tr=udp%3A%2F%2Fexodus.desync.com%3A6969","seeders":0,"leechers":0,"uploader":"rodneicm","files":10,"time":1315969460,"description":"BBC shows DVD recording in Champ Elisees Theater 1999. Mutter &amp; Orkis\n\nGeneral\nComplete name                    : C:\\Users\\BOSS\\Transfer\\Anne-Sophie Mutter -Beethoven.Violin.Sonatas.nr.1-10[BBC.1999]\\Beethoven.Violin.Sonata.No.1.Op.12.[Anne-Sophie.Mutter.-.Lambert.Orkis].avi\nFormat                           : AVI\nFormat/Info                      : Audio Video Interleave\nFile size                        : 260 MiB\nDuration                         : 24mn 33s\nOverall bit rate                 : 1 479 Kbps\nWriting application              : VirtualDubMod 1.4.13\nWriting library                  : VirtualDub build 14328/release\n\nVideo\nID                               : 0\nFormat                           : MPEG-4 Visual\nFormat settings, BVOP            : Yes\nFormat settings, QPel            : No\nFormat settings, GMC             : No warppoints\nFormat settings, Matrix          : Default (H.263)\nMuxing mode                      : Packed bitstream\nCodec ID                         : DX50\nCodec ID/Hint                    : DivX 5\nDuration                         : 24mn 33s\nBit rate                         : 1 301 Kbps\nWidth                            : 624 pixels\nHeight                           : 352 pixels\nDisplay aspect ratio             : 16:9\nFrame rate                       : 29.970 fps\nColor space                      : YUV\nChroma subsampling               : 4:2:0\nBit depth                        : 8 bits\nScan type                        : Progressive\nCompression mode                 : Lossy\nBits/(Pixel*Frame)               : 0.198\nStream size                      : 229 MiB (88%)\nWriting library                  : DivX 5.2.1 (WaffleDay) (UTC 2004-09-08)\n\nAudio\nID                               : 1\nFormat                           : MPEG Audio\nFormat version                   : Version 1\nFormat profile                   : Layer 3\nCodec ID                         : 55\nCodec ID/Hint                    : MP3\nDuration                         : 24mn 33s\nBit rate mode                    : Variable\nBit rate                         : 164 Kbps\nMinimum bit rate                 : 128 Kbps\nChannel(s)                       : 2 channels\nSampling rate                    : 48.0 KHz\nCompression mode                 : Lossy\nStream size                      : 28.8 MiB (11%)\nAlignment                        : Aligned on interleaves\nInterleave, duration             : 24 ms (0.72 video frame)\nInterleave, preload duration     : 248 ms\nWriting library                  : LAME3.93 \nEncoding settings                : -m s -V 0 -q 5 -lowpass 20.4 --vbr-old -b 128\n\n","torrent":{"xt":"urn:btih:7e741d1072a7069ae99760fd213af0402851d57d","amp;dn":"Anne-Sophie+Mutter+-Beethoven.Violin.Sonatas.nr.1-10%5BBBC.1999%5D","amp;tr":["udp%3A%2F%2Ftracker.openbittorrent.com%3A80","udp%3A%2F%2Fopen.demonii.com%3A1337","udp%3A%2F%2Ftracker.coppersurfer.tk%3A6969","udp%3A%2F%2Fexodus.desync.com%3A6969"],"infoHash":"7e741d1072a7069ae99760fd213af0402851d57d","infoHashBuffer":{"type":"Buffer","data":[126,116,29,16,114,167,6,154,233,151,96,253,33,58,240,64,40,81,213,125]},"announce":[],"urlList":[]}}